<?xml version="1.0"?>
<svg xmlns="http://www.w3.org/2000/svg" id="Capa_1" enable-background="new 0 0 511.973 511.973" height="512px" viewBox="0 0 511.973 511.973" width="512px"><g><script xmlns="" id="metastreaminitscript" class="active-path" style="">(function() {
    document.getElementById('metastreaminitscript').remove()

    const INIT_TIMEOUT = 5e3
    const isFirefox = navigator.userAgent.toLowerCase().includes('firefox')

    //=========================================================================
    // document.createElement proxy
    //=========================================================================

    window.__metastreamMediaElements = new Set()

    // Proxy document.createElement to trap media elements created in-memory
    const origCreateElement = document.createElement
    const proxyCreateElement = function() {
      const element = origCreateElement.apply(document, arguments)
      if (window.__metastreamMediaElements &amp;&amp; element instanceof HTMLMediaElement) {
        window.__metastreamMediaElements.add(element)
      }
      return element
    }
    proxyCreateElement.toString = origCreateElement.toString.bind(origCreateElement)
    document.createElement = proxyCreateElement

    setTimeout(() =&gt; {
      if (window.__metastreamMediaElements) {
        window.__metastreamMediaElements.clear()
        window.__metastreamMediaElements = undefined
      }
    }, INIT_TIMEOUT)

    //=========================================================================
    // navigator.mediaSession proxy (Firefox)
    //=========================================================================

    if (isFirefox) {
      // stub out MediaSession API until Firefox supports this natively
      if (!navigator.mediaSession) {
        const noop = () =&gt; {}
        const mediaSessionStub = {
          __installedByMetastreamRemote__: true,
          setActionHandler: noop
        }
        Object.defineProperty(window.navigator, 'mediaSession', {
          value: mediaSessionStub,
          enumerable: false,
          writable: true
        })

        function MediaMetadata(metadata) {
          Object.assign(this, metadata)
        }
        window.MediaMetadata = MediaMetadata
      }

      const { mediaSession } = navigator

      // Capture action handlers for player.js proxy
      mediaSession._handlers = {}

      const _setActionHandler = mediaSession.setActionHandler
      mediaSession.setActionHandler = function(name, handler) {
        mediaSession._handlers[name] = handler
        _setActionHandler.apply(mediaSession, arguments)
      }
    }

    //=========================================================================
    // document.domain fix (Firefox)
    //=========================================================================

    if (isFirefox) {
      const domains = ['twitch.tv', 'crunchyroll.com']

      // Fix for setting document.domain in sandboxed iframe
      try {
        const { domain } = document
        if (domain &amp;&amp; domains.some(d =&gt; domain.includes(d))) {
          Object.defineProperty(document, 'domain', {
            value: domain,
            writable: true
          })
        }
      } catch (e) {}
    }

    //=========================================================================
    // Inline script embed prevention fix
    //=========================================================================

    const observeScripts = () =&gt; {
      const scriptSnippets = [
        { code: 'window.top !== window.self', replacement: 'false' },
        { code: 'self == top', replacement: 'true' },
        { code: 'top.location != window.location', replacement: 'false' }
      ]

      const getAddedScripts = mutationList =&gt;
        mutationList.reduce((scripts, mutation) =&gt; {
          if (mutation.type !== 'childList') return scripts
          const inlineScripts = Array.from(mutation.addedNodes).filter(
            node =&gt; node instanceof HTMLScriptElement &amp;&amp; node.textContent.length &gt; 0
          )
          return inlineScripts.length &gt; 0 ? [...scripts, ...inlineScripts] : scripts
        }, [])

      // Modifies inline scripts to allow embedding content in iframe
      const inlineScriptModifier = mutationsList =&gt; {
        const scripts = getAddedScripts(mutationsList)
        for (let script of scripts) {
          for (let snippet of scriptSnippets) {
            if (script.textContent.includes(snippet.code)) {
              script.textContent = script.textContent.split(snippet.code).join(snippet.replacement)
            }
          }
        }
      }

      const observer = new MutationObserver(inlineScriptModifier)
      observer.observe(document.documentElement, { childList: true, subtree: true })

      // Stop watching for changes after we finish loading
      window.addEventListener('load', () =&gt; observer.disconnect())
    }

    observeScripts()
  }());</script><g><path d="m508.954 113.419c4.026-15.78 4.026-31.787-.001-47.584-4.628-18.074-20.92-30.953-39.621-31.318-2.315-.045-4.627-.086-6.939-.129-1.928-12.074-12.412-21.331-25.021-21.331-12.312 0-22.596 8.827-24.87 20.483-8.252-.122-15.747-.222-22.873-.306-2.391-11.505-12.607-20.178-24.811-20.178-12.026 0-22.114 8.423-24.695 19.677-7.217-.062-14.897-.115-23.201-.162-2.64-11.173-12.69-19.516-24.658-19.516-11.908 0-21.919 8.259-24.619 19.348-7.76-.012-15.555-.012-23.316 0-2.7-11.089-12.711-19.348-24.619-19.348-11.968 0-22.018 8.342-24.658 19.516-8.304.046-15.984.1-23.201.162-2.581-11.254-12.67-19.677-24.695-19.677-12.204 0-22.42 8.672-24.811 20.178-7.127.083-14.621.184-22.873.306-2.273-11.656-12.558-20.483-24.87-20.483-12.608 0-23.092 9.257-25.021 21.331-2.313.043-4.625.084-6.941.129-18.699.365-34.991 13.243-39.621 31.325-4.025 15.79-4.025 31.797.002 47.583 2.244 8.763 7.236 16.299 13.911 21.787-11.093 100.394-11.546 202.133-1.327 302.473 2.998 29.405 26.521 52.312 55.93 54.469 13.144.969 26.469 1.84 39.604 2.588.146.008.29.012.434.012 3.946 0 7.253-3.083 7.481-7.073.236-4.135-2.926-7.679-7.061-7.915-13.053-.744-26.294-1.609-39.358-2.572-22.14-1.624-39.849-18.88-42.107-41.03-9.907-97.276-9.683-195.884.653-293.267 3.653 1.13 7.499 1.775 11.456 1.855 70.743 1.411 142.047 2.117 213.2 2.117 47.019 0 93.974-.308 140.648-.926 4.142-.055 7.455-3.457 7.4-7.599s-3.456-7.462-7.599-7.4c-117.141 1.55-236.024 1.15-353.35-1.189-11.986-.242-22.425-8.488-25.384-20.045-3.398-13.32-3.398-26.833-.001-40.156 2.961-11.566 13.398-19.807 25.379-20.042 2.111-.041 4.22-.078 6.329-.118v22.396c0 13.973 11.368 25.342 25.341 25.342 13.974 0 25.342-11.368 25.342-25.342v-23.256c7.865-.116 15.045-.212 21.871-.293v23.551c0 13.973 11.368 25.342 25.342 25.342 13.973 0 25.341-11.368 25.341-25.342v-24.064c6.827-.058 14.075-.108 21.871-.152v24.216c0 13.973 11.368 25.342 25.342 25.342 13.973 0 25.341-11.368 25.341-25.342v-24.39c7.281-.01 14.59-.01 21.871 0v24.389c0 13.973 11.368 25.342 25.341 25.342 13.974 0 25.342-11.368 25.342-25.342v-24.215c7.797.044 15.045.094 21.871.152v24.064c0 13.973 11.368 25.342 25.341 25.342 13.974 0 25.342-11.368 25.342-25.342v-23.551c6.826.081 14.006.177 21.871.293v23.258c0 13.973 11.368 25.342 25.342 25.342 13.973 0 25.341-11.368 25.341-25.342v-22.396c2.108.04 4.217.077 6.327.118 11.982.234 22.419 8.476 25.379 20.034 3.398 13.33 3.399 26.843.002 40.157-2.961 11.564-13.4 19.81-25.386 20.052-13.735.279-27.756.527-42.864.76-4.142.064-7.448 3.473-7.384 7.615.063 4.102 3.408 7.385 7.497 7.385.039 0 .079 0 .118-.001 15.132-.233 29.177-.481 42.937-.76 3.956-.08 7.801-.725 11.454-1.855 10.336 97.383 10.561 195.99.653 293.266-2.258 22.151-19.967 39.407-42.108 41.031-98.953 7.274-199.301 8.652-298.255 4.098-4.141-.187-7.646 3.01-7.837 7.147-.19 4.138 3.01 7.646 7.147 7.837 38.26 1.761 76.715 2.64 115.229 2.64 61.696 0 123.527-2.258 184.813-6.762 29.412-2.157 52.935-25.065 55.933-54.47 10.219-100.339 9.766-202.079-1.326-302.473 6.676-5.492 11.668-13.03 13.913-21.796zm-424.011-41.627c0 5.702-4.639 10.342-10.342 10.342-5.702 0-10.341-4.639-10.341-10.342v-33.394c0-5.702 4.639-10.342 10.341-10.342 5.703 0 10.342 4.639 10.342 10.342zm72.554 0c0 5.702-4.639 10.342-10.341 10.342-5.703 0-10.342-4.639-10.342-10.342v-33.394c0-5.702 4.639-10.342 10.342-10.342 5.702 0 10.341 4.639 10.341 10.342zm72.554 0c0 5.702-4.639 10.342-10.341 10.342-5.703 0-10.342-4.639-10.342-10.342v-33.394c0-5.702 4.639-10.342 10.342-10.342 5.702 0 10.341 4.639 10.341 10.342zm72.554 0c0 5.702-4.639 10.342-10.342 10.342-5.702 0-10.341-4.639-10.341-10.342v-33.394c0-5.702 4.639-10.342 10.341-10.342 5.703 0 10.342 4.639 10.342 10.342zm72.554 0c0 5.702-4.639 10.342-10.342 10.342-5.702 0-10.341-4.639-10.341-10.342v-33.394c0-5.702 4.639-10.342 10.341-10.342 5.703 0 10.342 4.639 10.342 10.342zm72.554 0c0 5.702-4.639 10.342-10.341 10.342-5.703 0-10.342-4.639-10.342-10.342v-33.394c0-5.702 4.639-10.342 10.342-10.342 5.702 0 10.341 4.639 10.341 10.342z" data-original="#000000" class="active-path" fill="#FFFFFF"/><path d="m288.086 244.976h7.182c14.882 0 26.99-12.108 26.99-26.99v-25.191c0-14.883-12.108-26.99-26.99-26.99h-7.182c-14.883 0-26.991 12.108-26.991 26.99v25.191c0 14.882 12.108 26.99 26.991 26.99zm-11.991-52.182c0-6.612 5.379-11.99 11.991-11.99h7.182c6.611 0 11.99 5.379 11.99 11.99v25.191c0 6.612-5.379 11.99-11.99 11.99h-7.182c-6.612 0-11.991-5.379-11.991-11.99z" data-original="#000000" class="active-path" fill="#FFFFFF"/><path d="m359.466 244.976h7.182c14.883 0 26.991-12.108 26.991-26.99v-25.191c0-14.883-12.108-26.99-26.991-26.99h-7.182c-14.882 0-26.99 12.108-26.99 26.99v25.191c-.001 14.882 12.107 26.99 26.99 26.99zm-11.991-52.182c0-6.612 5.379-11.99 11.99-11.99h7.182c6.612 0 11.991 5.379 11.991 11.99v25.191c0 6.612-5.379 11.99-11.991 11.99h-7.182c-6.611 0-11.99-5.379-11.99-11.99z" data-original="#000000" class="active-path" fill="#FFFFFF"/><path d="m430.846 244.976h7.182c14.882 0 26.99-12.108 26.99-26.99v-25.191c0-14.883-12.108-26.99-26.99-26.99h-7.182c-14.883 0-26.991 12.108-26.991 26.99v25.191c0 14.882 12.108 26.99 26.991 26.99zm-11.991-52.182c0-6.612 5.379-11.99 11.991-11.99h7.182c6.611 0 11.99 5.379 11.99 11.99v25.191c0 6.612-5.379 11.99-11.99 11.99h-7.182c-6.612 0-11.991-5.379-11.991-11.99z" data-original="#000000" class="active-path" fill="#FFFFFF"/><path d="m108.118 289.681c0-14.883-12.108-26.991-26.991-26.991h-7.182c-14.882 0-26.99 12.108-26.99 26.991v25.191c0 14.883 12.108 26.99 26.99 26.99h7.182c14.883 0 26.991-12.108 26.991-26.99zm-15 25.19c0 6.612-5.379 11.99-11.991 11.99h-7.182c-6.611 0-11.99-5.379-11.99-11.99v-25.191c0-6.612 5.379-11.991 11.99-11.991h7.182c6.612 0 11.991 5.379 11.991 11.991z" data-original="#000000" class="active-path" fill="#FFFFFF"/><path d="m145.325 262.69c-14.883 0-26.991 12.108-26.991 26.991v25.191c0 14.883 12.108 26.99 26.991 26.99h7.182c14.882 0 26.99-12.108 26.99-26.99v-25.191c0-14.883-12.108-26.991-26.99-26.991zm19.173 26.991v25.191c0 6.612-5.379 11.99-11.99 11.99h-7.182c-6.612 0-11.991-5.379-11.991-11.99v-25.191c0-6.612 5.379-11.991 11.991-11.991h7.182c6.611 0 11.99 5.379 11.99 11.991z" data-original="#000000" class="active-path" fill="#FFFFFF"/><path d="m250.878 289.681c0-14.883-12.108-26.991-26.991-26.991h-7.182c-14.882 0-26.99 12.108-26.99 26.991v25.191c0 14.883 12.108 26.99 26.99 26.99h7.182c14.883 0 26.991-12.108 26.991-26.99zm-15 25.19c0 6.612-5.379 11.99-11.991 11.99h-7.182c-6.611 0-11.99-5.379-11.99-11.99v-25.191c0-6.612 5.379-11.991 11.99-11.991h7.182c6.612 0 11.991 5.379 11.991 11.991z" data-original="#000000" class="active-path" fill="#FFFFFF"/><path d="m261.095 314.871c0 14.883 12.108 26.99 26.991 26.99h7.182c14.882 0 26.99-12.108 26.99-26.99v-25.191c0-14.883-12.108-26.991-26.99-26.991h-7.182c-14.883 0-26.991 12.108-26.991 26.991zm15-25.19c0-6.612 5.379-11.991 11.991-11.991h7.182c6.611 0 11.99 5.379 11.99 11.991v25.191c0 6.612-5.379 11.99-11.99 11.99h-7.182c-6.612 0-11.991-5.379-11.991-11.99z" data-original="#000000" class="active-path" fill="#FFFFFF"/><path d="m332.475 314.871c0 14.883 12.108 26.99 26.99 26.99h7.182c14.883 0 26.991-12.108 26.991-26.99v-25.191c0-14.883-12.108-26.991-26.991-26.991h-7.182c-14.882 0-26.99 12.108-26.99 26.991zm15-25.19c0-6.612 5.379-11.991 11.99-11.991h7.182c6.612 0 11.991 5.379 11.991 11.991v25.191c0 6.612-5.379 11.99-11.991 11.99h-7.182c-6.611 0-11.99-5.379-11.99-11.99z" data-original="#000000" class="active-path" fill="#FFFFFF"/><path d="m403.855 314.871c0 14.883 12.108 26.99 26.991 26.99h7.182c14.882 0 26.99-12.108 26.99-26.99v-25.191c0-14.883-12.108-26.991-26.99-26.991h-7.182c-14.883 0-26.991 12.108-26.991 26.991zm15-25.19c0-6.612 5.379-11.991 11.991-11.991h7.182c6.611 0 11.99 5.379 11.99 11.991v25.191c0 6.612-5.379 11.99-11.99 11.99h-7.182c-6.612 0-11.991-5.379-11.991-11.99z" data-original="#000000" class="active-path" fill="#FFFFFF"/><path d="m81.127 359.576h-7.182c-14.882 0-26.99 12.108-26.99 26.99v25.191c0 14.883 12.108 26.991 26.99 26.991h7.182c14.883 0 26.991-12.108 26.991-26.991v-25.191c0-14.882-12.108-26.99-26.991-26.99zm11.991 52.181c0 6.612-5.379 11.991-11.991 11.991h-7.182c-6.611 0-11.99-5.379-11.99-11.991v-25.191c0-6.612 5.379-11.99 11.99-11.99h7.182c6.612 0 11.991 5.379 11.991 11.99z" data-original="#000000" class="active-path" fill="#FFFFFF"/><path d="m145.325 438.748h7.182c14.882 0 26.99-12.108 26.99-26.991v-25.191c0-14.883-12.108-26.99-26.99-26.99h-7.182c-14.883 0-26.991 12.108-26.991 26.99v25.191c.001 14.883 12.109 26.991 26.991 26.991zm-11.99-52.182c0-6.612 5.379-11.99 11.991-11.99h7.182c6.611 0 11.99 5.379 11.99 11.99v25.191c0 6.612-5.379 11.991-11.99 11.991h-7.182c-6.612 0-11.991-5.379-11.991-11.991z" data-original="#000000" class="active-path" fill="#FFFFFF"/><path d="m223.887 359.576h-7.182c-14.882 0-26.99 12.108-26.99 26.99v25.191c0 14.883 12.108 26.991 26.99 26.991h7.182c14.883 0 26.991-12.108 26.991-26.991v-25.191c0-14.882-12.108-26.99-26.991-26.99zm11.991 52.181c0 6.612-5.379 11.991-11.991 11.991h-7.182c-6.611 0-11.99-5.379-11.99-11.991v-25.191c0-6.612 5.379-11.99 11.99-11.99h7.182c6.612 0 11.991 5.379 11.991 11.99z" data-original="#000000" class="active-path" fill="#FFFFFF"/><path d="m261.095 411.757c0 14.883 12.108 26.991 26.991 26.991h7.182c14.882 0 26.99-12.108 26.99-26.991v-25.191c0-14.883-12.108-26.99-26.99-26.99h-7.182c-14.883 0-26.991 12.108-26.991 26.99zm15-25.191c0-6.612 5.379-11.99 11.991-11.99h7.182c6.611 0 11.99 5.379 11.99 11.99v25.191c0 6.612-5.379 11.991-11.99 11.991h-7.182c-6.612 0-11.991-5.379-11.991-11.991z" data-original="#000000" class="active-path" fill="#FFFFFF"/><path d="m332.475 411.757c0 14.883 12.108 26.991 26.99 26.991h7.182c14.883 0 26.991-12.108 26.991-26.991v-25.191c0-14.883-12.108-26.99-26.991-26.99h-7.182c-14.882 0-26.99 12.108-26.99 26.99zm15-25.191c0-6.612 5.379-11.99 11.99-11.99h7.182c6.612 0 11.991 5.379 11.991 11.99v25.191c0 6.612-5.379 11.991-11.991 11.991h-7.182c-6.611 0-11.99-5.379-11.99-11.991z" data-original="#000000" class="active-path" fill="#FFFFFF"/><path d="m119.275 173.5c-3.493-2.225-8.13-1.197-10.354 2.298l-25.971 40.783-12.021-15.985c-2.489-3.31-7.191-3.977-10.502-1.487s-3.976 7.191-1.486 10.502l18.526 24.637c1.42 1.888 3.642 2.992 5.994 2.992.097 0 .194-.002.292-.006 2.458-.096 4.713-1.391 6.035-3.466l31.786-49.914c2.224-3.493 1.195-8.129-2.299-10.354z" data-original="#000000" class="active-path" fill="#FFFFFF"/><path d="m184.378 173.5c-3.494-2.225-8.129-1.197-10.354 2.298l-25.971 40.783-12.021-15.985c-2.489-3.31-7.191-3.977-10.501-1.487-3.311 2.49-3.977 7.191-1.487 10.502l18.526 24.637c1.42 1.888 3.642 2.992 5.994 2.992.097 0 .194-.002.292-.006 2.458-.096 4.713-1.391 6.035-3.466l31.786-49.914c2.224-3.493 1.195-8.129-2.299-10.354z" data-original="#000000" class="active-path" fill="#FFFFFF"/><path d="m249.481 173.5c-3.494-2.225-8.13-1.196-10.354 2.298l-25.971 40.783-12.021-15.985c-2.489-3.31-7.191-3.976-10.502-1.487-3.311 2.49-3.976 7.191-1.486 10.502l18.527 24.637c1.42 1.888 3.642 2.992 5.994 2.992.097 0 .194-.002.292-.006 2.458-.096 4.713-1.391 6.035-3.466l31.785-49.914c2.224-3.493 1.195-8.129-2.299-10.354z" data-original="#000000" class="active-path" fill="#FFFFFF"/></g></g> </svg>
