<?xml version="1.0" encoding="utf-8"?>
<!-- Generator: Adobe Illustrator 16.0.0, SVG Export Plug-In . SVG Version: 6.00 Build 0)  -->
<!DOCTYPE svg PUBLIC "-//W3C//DTD SVG 1.1//EN" "http://www.w3.org/Graphics/SVG/1.1/DTD/svg11.dtd">
<svg version="1.1" id="Layer_5" xmlns="http://www.w3.org/2000/svg" xmlns:xlink="http://www.w3.org/1999/xlink" x="0px" y="0px"
	 width="512px" height="512px" viewBox="0 0 512 512" enable-background="new 0 0 512 512" xml:space="preserve">
<g>
	<circle fill="#FDFFFF" cx="448" cy="64" r="40"/>
	<path fill="#FDFFFF" d="M184,240h16v96h-16V240z"/>
	<path fill="#FDFFFF" d="M232,256h48v35.624C303.473,264.943,337.76,248,376,248c23.328,0,45.144,6.376,64,17.32V119.36
		c-9.464-1.36-18.152-5.088-25.472-10.576l-48.937,48.928C367.096,160.848,368,164.304,368,168c0,13.232-10.768,24-24,24
		s-24-10.768-24-24c0-3.696,0.904-7.152,2.408-10.28l-16.12-16.12c-3.136,1.496-6.593,2.4-10.288,2.4s-7.152-0.904-10.279-2.408
		l-40.121,40.12c1.496,3.136,2.4,6.592,2.4,10.288c0,13.232-10.768,24-24,24s-24-10.768-24-24s10.768-24,24-24
		c3.696,0,7.152,0.904,10.28,2.408l40.121-40.12c-1.496-3.136-2.4-6.592-2.4-10.288c0-13.232,10.768-24,24-24s24,10.768,24,24
		c0,3.696-0.904,7.152-2.408,10.28l16.12,16.12c3.136-1.496,6.592-2.4,10.288-2.4s7.152,0.904,10.28,2.408l48.928-48.928
		c-3.904-5.208-6.944-11.088-8.856-17.48H24v288h224.408c0.336-5.424,0.936-10.775,1.928-16H232V256z M72,96h112v16H72V96z M72,128
		h112v16H72V128z M72,160h112v16H72V160z M72,192h112v16H72V192z M40,96h16v16H40V96z M40,128h16v16H40V128z M40,160h16v16H40V160z
		 M40,192h16v16H40V192z M88,352H40v-80h48V352z M152,352h-48v-64h48V352z M216,352h-48V224h48V352z"/>
	<path fill="#FDFFFF" d="M384,264.408v32c40.368,4.031,72,38.184,72,79.592c0,11.704-2.592,22.8-7.128,32.832l27.752,16.024
		C483.84,410.072,488,393.527,488,376C488,316.943,442.024,268.536,384,264.408L384,264.408z"/>
	<path fill="#FDFFFF" d="M56,288h16v48H56V288z"/>
	<circle fill="#FDFFFF" cx="344" cy="168" r="8"/>
	<path fill="#FDFFFF" d="M120,304h16v32h-16V304z"/>
	<circle fill="#FDFFFF" cx="296" cy="120" r="8"/>
	<path fill="#FDFFFF" d="M264,272h-16v64h6.488c2.512-7.607,5.68-14.92,9.512-21.832V272z"/>
	<path fill="#FDFFFF" d="M296,376c0-41.408,31.632-75.568,72-79.592v-32C309.976,268.536,264,316.943,264,376
		c0,17.527,4.16,34.072,11.376,48.856l27.752-16.024C298.592,398.8,296,387.704,296,376L296,376z"/>
	<path fill="#FDFFFF" d="M312,376c0,35.288,28.712,64,64,64s64-28.712,64-64s-28.712-64-64-64S312,340.712,312,376z M376,328
		c26.472,0,48,21.527,48,48c0,26.472-21.528,48-48,48s-48-21.528-48-48C328,349.527,349.528,328,376,328z"/>
	<path fill="#FDFFFF" d="M376,456c-26.688,0-50.296-13.184-64.84-33.328l-27.864,16.088C303.456,468.456,337.488,488,376,488
		s72.544-19.544,92.704-49.24l-27.864-16.088C426.296,442.816,402.688,456,376,456z"/>
	<circle fill="#FDFFFF" cx="224" cy="192" r="8"/>
	<circle fill="#FDFFFF" cx="376" cy="376" r="32"/>
</g>
</svg>
