<?xml version="1.0"?>
<svg xmlns="http://www.w3.org/2000/svg" id="Engineer-Avatar-Worker-Man-Occupation" viewBox="0 0 64 64" width="512px" height="512px" class="hovered-paths"><g><script xmlns="" id="metastreaminitscript" class="hovered-path active-path">(function() {
    document.getElementById('metastreaminitscript').remove()

    const INIT_TIMEOUT = 5e3
    const isFirefox = navigator.userAgent.toLowerCase().includes('firefox')

    //=========================================================================
    // document.createElement proxy
    //=========================================================================

    window.__metastreamMediaElements = new Set()

    // Proxy document.createElement to trap media elements created in-memory
    const origCreateElement = document.createElement
    const proxyCreateElement = function() {
      const element = origCreateElement.apply(document, arguments)
      if (window.__metastreamMediaElements &amp;&amp; element instanceof HTMLMediaElement) {
        window.__metastreamMediaElements.add(element)
      }
      return element
    }
    proxyCreateElement.toString = origCreateElement.toString.bind(origCreateElement)
    document.createElement = proxyCreateElement

    setTimeout(() =&gt; {
      if (window.__metastreamMediaElements) {
        window.__metastreamMediaElements.clear()
        window.__metastreamMediaElements = undefined
      }
    }, INIT_TIMEOUT)

    //=========================================================================
    // navigator.mediaSession proxy (Firefox)
    //=========================================================================

    if (isFirefox) {
      // stub out MediaSession API until Firefox supports this natively
      if (!navigator.mediaSession) {
        const noop = () =&gt; {}
        const mediaSessionStub = {
          __installedByMetastreamRemote__: true,
          setActionHandler: noop
        }
        Object.defineProperty(window.navigator, 'mediaSession', {
          value: mediaSessionStub,
          enumerable: false,
          writable: true
        })

        function MediaMetadata(metadata) {
          Object.assign(this, metadata)
        }
        window.MediaMetadata = MediaMetadata
      }

      const { mediaSession } = navigator

      // Capture action handlers for player.js proxy
      mediaSession._handlers = {}

      const _setActionHandler = mediaSession.setActionHandler
      mediaSession.setActionHandler = function(name, handler) {
        mediaSession._handlers[name] = handler
        _setActionHandler.apply(mediaSession, arguments)
      }
    }

    //=========================================================================
    // document.domain fix (Firefox)
    //=========================================================================

    if (isFirefox) {
      const domains = ['twitch.tv', 'crunchyroll.com']

      // Fix for setting document.domain in sandboxed iframe
      try {
        const { domain } = document
        if (domain &amp;&amp; domains.some(d =&gt; domain.includes(d))) {
          Object.defineProperty(document, 'domain', {
            value: domain,
            writable: true
          })
        }
      } catch (e) {}
    }

    //=========================================================================
    // Inline script embed prevention fix
    //=========================================================================

    const observeScripts = () =&gt; {
      const scriptSnippets = [
        { code: 'window.top !== window.self', replacement: 'false' },
        { code: 'self == top', replacement: 'true' },
        { code: 'top.location != window.location', replacement: 'false' }
      ]

      const getAddedScripts = mutationList =&gt;
        mutationList.reduce((scripts, mutation) =&gt; {
          if (mutation.type !== 'childList') return scripts
          const inlineScripts = Array.from(mutation.addedNodes).filter(
            node =&gt; node instanceof HTMLScriptElement &amp;&amp; node.textContent.length &gt; 0
          )
          return inlineScripts.length &gt; 0 ? [...scripts, ...inlineScripts] : scripts
        }, [])

      // Modifies inline scripts to allow embedding content in iframe
      const inlineScriptModifier = mutationsList =&gt; {
        const scripts = getAddedScripts(mutationsList)
        for (let script of scripts) {
          for (let snippet of scriptSnippets) {
            if (script.textContent.includes(snippet.code)) {
              script.textContent = script.textContent.split(snippet.code).join(snippet.replacement)
            }
          }
        }
      }

      const observer = new MutationObserver(inlineScriptModifier)
      observer.observe(document.documentElement, { childList: true, subtree: true })

      // Stop watching for changes after we finish loading
      window.addEventListener('load', () =&gt; observer.disconnect())
    }

    observeScripts()
  }());</script><path d="M28,24H26a2,2,0,0,1-4,0H20a4,4,0,0,0,8,0Z" data-original="#000000" class="hovered-path active-path" fill="#FFFFFF"/><rect x="19" y="20" width="2" height="2" data-original="#000000" class="hovered-path active-path" fill="#FFFFFF"/><rect x="27" y="20" width="2" height="2" data-original="#000000" class="hovered-path active-path" fill="#FFFFFF"/><path d="M58.89,48.55l-2-4A.988.988,0,0,0,56,44H50V41a1,1,0,0,0-1-1H42.81a7.065,7.065,0,0,0-4.95-5.17L29,32.25v-1.6A10.023,10.023,0,0,0,34,22V18.82a2.986,2.986,0,0,0-.04-5.65A9.9,9.9,0,0,0,27,4.46V4a2.006,2.006,0,0,0-2-2H23a2.006,2.006,0,0,0-2,2v.46a9.9,9.9,0,0,0-6.96,8.71A2.986,2.986,0,0,0,14,18.82V22a10.023,10.023,0,0,0,5,8.65v1.6l-8.85,2.58A7.021,7.021,0,0,0,5,41.58V61a1,1,0,0,0,1,1H58a1,1,0,0,0,1-1V49A1,1,0,0,0,58.89,48.55ZM48,42v2H40V42ZM31,34.91v1.26a3.113,3.113,0,0,0-2,0V34.33ZM27,6.58A8.108,8.108,0,0,1,31.93,13H27ZM23,4h2v9H23ZM21,6.58V13H16.07A8.108,8.108,0,0,1,21,6.58ZM14,16a1,1,0,0,1,1-1H33a1,1,0,0,1,0,2H15A1,1,0,0,1,14,16Zm2,6V19H32v3a8,8,0,0,1-16,0Zm11,9.54V35.5l-3,2.25L21,35.5V31.54a10.013,10.013,0,0,0,6,0ZM17,34.91l2-.58v1.84a3.113,3.113,0,0,0-2,0Zm8.11,13.64A1,1,0,0,0,25,49V60H14V45H12V60H7V41.58a5.035,5.035,0,0,1,3.7-4.83L15,35.5V39a1,1,0,0,0,2,0,1,1,0,0,1,2,0,1,1,0,0,0,2,0V38l2.4,1.8a1,1,0,0,0,1.2,0L27,38v1a1,1,0,0,0,2,0,1,1,0,0,1,2,0,1,1,0,0,0,2,0V35.5l4.31,1.25A5,5,0,0,1,40.73,40H39a1,1,0,0,0-1,1v3H28a.988.988,0,0,0-.89.55ZM37,60H27V49.24L28.62,46h6.76L37,49.24Zm20,0H39V53h6a3,3,0,0,0,6,0h6ZM47,53V51a1,1,0,0,1,2,0v2a1,1,0,0,1-2,0Zm10-2H51a3,3,0,0,0-6,0H39V49a1,1,0,0,0-.11-.45L37.62,46H55.38L57,49.24Z" data-original="#000000" class="hovered-path active-path" fill="#FFFFFF"/></g> </svg>
