<?xml version="1.0" encoding="utf-8"?>
<!-- Generator: Adobe Illustrator 16.0.0, SVG Export Plug-In . SVG Version: 6.00 Build 0)  -->
<!DOCTYPE svg PUBLIC "-//W3C//DTD SVG 1.1//EN" "http://www.w3.org/Graphics/SVG/1.1/DTD/svg11.dtd">
<svg version="1.1" id="Capa_1" xmlns="http://www.w3.org/2000/svg" xmlns:xlink="http://www.w3.org/1999/xlink" x="0px" y="0px"
	 width="612px" height="792px" viewBox="0 0 612 792" enable-background="new 0 0 612 792" xml:space="preserve">
<g>
	<g>
		<g>
			<path fill="#FFFFFF" d="M69.097,534.193c-16.327,0-29.613,13.286-29.613,29.613c0,16.326,13.286,29.612,29.613,29.612
				s29.613-13.286,29.613-29.612C98.709,547.479,85.423,534.193,69.097,534.193z M69.097,573.678c-5.439,0-9.871-4.433-9.871-9.871
				c0-5.439,4.432-9.871,9.871-9.871s9.871,4.432,9.871,9.871C78.968,569.245,74.536,573.678,69.097,573.678z"/>
			<rect x="118.452" y="168.968" fill="#FFFFFF" width="19.742" height="19.742"/>
			<path fill="#FFFFFF" d="M355.354,188.709V702H612V188.709H355.354z M511.75,208.452c-2.586,8.785-9.505,19.742-28.072,19.742
				c-18.577,0-25.487-10.966-28.073-19.742H511.75z M435.35,208.452c3.365,17.313,15.961,39.484,48.328,39.484
				c32.366,0,44.962-22.17,48.328-39.484h19.979c-4.816,33.433-33.571,59.226-68.307,59.226c-34.736,0-63.49-25.792-68.308-59.226
				H435.35z M395.421,208.452c4.936,44.35,42.613,78.968,88.257,78.968c45.643,0,83.32-34.618,88.256-78.968h19.821
				c-5.005,55.258-51.536,98.709-108.077,98.709s-103.073-43.452-108.077-98.709H395.421z M592.258,682.258H375.097V266.661
				c22.723,36.118,62.839,60.243,108.581,60.243s85.857-24.125,108.58-60.243V682.258z"/>
			<rect x="552.774" y="326.903" fill="#FFFFFF" width="19.741" height="296.129"/>
			<rect x="552.774" y="642.774" fill="#FFFFFF" width="19.741" height="19.741"/>
			<rect x="394.839" y="366.387" fill="#FFFFFF" width="19.742" height="177.677"/>
			<rect x="394.839" y="326.903" fill="#FFFFFF" width="19.742" height="19.742"/>
			<path fill="#FFFFFF" d="M483.678,346.645c-27.215,0-49.355,22.141-49.355,49.355v9.871h19.742V396
				c0-16.327,13.286-29.613,29.613-29.613c16.326,0,29.612,13.286,29.612,29.613v187.549h19.742V396
				C533.032,368.786,510.892,346.645,483.678,346.645z"/>
			<rect x="513.29" y="603.29" fill="#FFFFFF" width="19.742" height="19.742"/>
			<rect x="434.322" y="425.613" fill="#FFFFFF" width="19.742" height="19.741"/>
			<path fill="#FFFFFF" d="M256.645,514.698V218.323C256.645,147.567,199.078,90,128.323,90C57.567,90,0,147.567,0,218.323V702
				h202.039l16.455-19.742h33.216c46.266,0,83.904-37.638,83.904-83.903C335.613,553.758,300.61,517.274,256.645,514.698z
				 M256.645,574.181c11.253,2.29,19.742,12.26,19.742,24.174c0,11.915-8.489,21.884-19.742,24.175V574.181z M236.903,218.323
				h-19.742c0-6.792-0.839-13.385-2.29-19.742h20.147C236.202,204.997,236.903,211.571,236.903,218.323z M217.161,455.226v-19.741
				h19.742v19.741H217.161z M236.903,474.968v19.742h-19.742v-19.742H236.903z M217.161,415.742V396h19.742v19.742H217.161z
				 M217.161,376.258v-19.742h19.742v19.742H217.161z M217.161,336.774v-19.742h19.742v19.742H217.161z M217.161,297.291v-19.742
				h19.742v19.742H217.161z M217.161,257.807v-19.742h19.742v19.742H217.161z M229.362,178.839h-21.578
				c-1.767-3.544-3.691-6.999-5.893-10.256l14.085-14.086C221.426,161.959,225.946,170.113,229.362,178.839z M181.655,123.848
				c7.739,4.383,14.856,9.703,21.262,15.784l-13.948,13.958c-4.906-4.6-10.315-8.637-16.159-12.042L181.655,123.848z
				 M138.193,110.245c8.835,0.8,17.333,2.715,25.438,5.508l-8.874,17.748c-5.32-1.659-10.868-2.803-16.563-3.435V110.245z
				 M197.419,218.323V494.71h-59.226V208.452h-19.742V494.71H59.226V218.323c0-38.102,30.995-69.097,69.097-69.097
				C166.424,149.226,197.419,180.221,197.419,218.323z M118.452,110.245v19.821c-5.696,0.632-11.243,1.776-16.563,3.435
				l-8.874-17.748C101.118,112.96,109.617,111.045,118.452,110.245z M74.99,123.857l8.844,17.689
				c-5.843,3.405-11.253,7.442-16.159,12.042l-13.958-13.958C60.134,133.561,67.251,128.24,74.99,123.857z M40.668,154.497
				l14.086,14.086c-2.211,3.257-4.126,6.712-5.893,10.256H27.283C30.708,170.113,35.22,161.959,40.668,154.497z M21.627,198.581
				h20.146c-1.451,6.357-2.29,12.951-2.29,19.742H19.742C19.742,211.571,20.443,204.997,21.627,198.581z M19.742,238.064h19.742
				v19.742H19.742V238.064z M19.742,277.548h19.742v19.742H19.742V277.548z M19.742,317.032h19.742v19.742H19.742V317.032z
				 M19.742,356.516h19.742v19.742H19.742V356.516z M19.742,396h19.742v19.742H19.742V396z M19.742,435.484h19.742v19.741H19.742
				V435.484z M19.742,474.968h19.742v19.742H19.742V474.968z M192.8,682.258H19.742V514.451h98.71h19.742h98.71V629.33
				L192.8,682.258z M251.709,662.516h-16.761l16.455-19.741h0.306c24.49,0,44.419-19.93,44.419-44.42
				c0-22.802-17.333-41.428-39.484-43.916V534.45c33.078,2.537,59.226,30.195,59.226,63.914
				C315.871,633.732,287.087,662.516,251.709,662.516z"/>
			<path fill="#FFFFFF" d="M118.452,632.903h49.355c16.326,0,29.613-13.286,29.613-29.613v-69.097h-78.968V632.903z
				 M138.193,593.419h19.742v-19.741h-19.742v-19.742h39.484v49.354c0,5.439-4.432,9.871-9.871,9.871h-29.613V593.419z"/>
		</g>
	</g>
</g>
</svg>
