<?xml version="1.0" encoding="utf-8"?>
<!-- Generator: Adobe Illustrator 16.0.0, SVG Export Plug-In . SVG Version: 6.00 Build 0)  -->
<!DOCTYPE svg PUBLIC "-//W3C//DTD SVG 1.1//EN" "http://www.w3.org/Graphics/SVG/1.1/DTD/svg11.dtd">
<svg version="1.1" id="Layer_1" xmlns="http://www.w3.org/2000/svg" xmlns:xlink="http://www.w3.org/1999/xlink" x="0px" y="0px"
	 width="512px" height="512px" viewBox="0 0 512 512" enable-background="new 0 0 512 512" xml:space="preserve">
<g id="Layer_12">
	<path fill="#FFFFFF" d="M112,312h288V56H112V312z M130.32,178.32l64-64c2.301-2.27,5.741-2.933,8.72-1.68
		c2.987,1.227,4.944,4.13,4.96,7.36v32h96v-32c0.016-3.229,1.973-6.133,4.96-7.36c2.979-1.253,6.42-0.59,8.72,1.68l64,64
		c3.138,3.112,3.158,8.177,0.047,11.314c-0.016,0.016-0.031,0.031-0.047,0.046l-64,64c-1.51,1.498-3.554,2.332-5.68,2.32
		c-1.05,0.027-2.091-0.192-3.04-0.64c-2.987-1.227-4.944-4.13-4.96-7.36v-32h-96v32c-0.016,3.229-1.973,6.133-4.96,7.36
		c-2.979,1.253-6.419,0.59-8.72-1.68l-64-64c-3.137-3.112-3.157-8.177-0.046-11.314C130.289,178.351,130.305,178.335,130.32,178.32z
		"/>
	<path fill="#FFFFFF" d="M192,208c0-4.418,3.582-8,8-8h112c4.418,0,8,3.582,8,8v20.72L364.72,184L320,139.28V160
		c0,4.418-3.582,8-8,8H200c-4.418,0-8-3.582-8-8v-20.72L147.28,184L192,228.72V208z"/>
	<path fill="#FFFFFF" d="M112,456h288V328H112V456z M312,344h48v16h-16v80h-16v-80h-16V344z M280,344h16v96h-16V344z M216,344h16
		c0.009,11.313,2.753,22.457,8,32.48c5.247-10.023,7.991-21.167,8-32.48h16c0.02,17.066-4.99,33.762-14.4,48
		c9.41,14.238,14.419,30.933,14.4,48h-16c-0.009-11.313-2.753-22.457-8-32.48c-5.247,10.023-7.991,21.167-8,32.48h-16
		c-0.019-17.067,4.99-33.762,14.4-48C220.99,377.762,215.981,361.066,216,344z M152,352c0-4.418,3.582-8,8-8h40v16h-32v24h32v16h-32
		v24h32v16h-40c-4.418,0-8-3.582-8-8V352z"/>
	<path fill="#FFFFFF" d="M416,24H96c-8.836,0-16,7.164-16,16v432c0,8.837,7.164,16,16,16h320c8.837,0,16-7.163,16-16V40
		C432,31.164,424.837,24,416,24z M416,464c0,4.418-3.582,8-8,8H104c-4.418,0-8-3.582-8-8V48c0-4.418,3.582-8,8-8h304
		c4.418,0,8,3.582,8,8V464z"/>
</g>
</svg>
