<?xml version="1.0" encoding="utf-8"?>
<!-- Generator: Adobe Illustrator 16.0.0, SVG Export Plug-In . SVG Version: 6.00 Build 0)  -->
<!DOCTYPE svg PUBLIC "-//W3C//DTD SVG 1.1//EN" "http://www.w3.org/Graphics/SVG/1.1/DTD/svg11.dtd">
<svg version="1.1" id="Capa_1" xmlns="http://www.w3.org/2000/svg" xmlns:xlink="http://www.w3.org/1999/xlink" x="0px" y="0px"
	 width="612px" height="792px" viewBox="0 0 612 792" enable-background="new 0 0 612 792" xml:space="preserve">
<g>
	<g>
		<path fill="#FFFFFF" d="M484.5,141h-53.35c-5.281-14.809-19.301-25.5-35.901-25.5h-38.512C344.761,99.613,325.935,90,306,90
			c-19.934,0-38.76,9.613-50.739,25.5H216.75c-16.601,0-30.62,10.691-35.901,25.5H127.5c-28.128,0.001-51,22.874-51,51v459
			c0,28.128,22.872,51,51,51h357c28.127,0,50.999-22.872,50.999-51V192C535.5,163.873,512.628,141,484.5,141z M191.25,625.5
			c-21.092,0-38.25-17.157-38.25-38.25S170.158,549,191.25,549s38.25,17.157,38.25,38.25S212.342,625.5,191.25,625.5z M191.25,498
			c-21.092,0-38.25-17.158-38.25-38.25c0-21.093,17.158-38.25,38.25-38.25s38.25,17.157,38.25,38.25
			C229.5,480.842,212.342,498,191.25,498z M191.25,370.5c-21.092,0-38.25-17.158-38.25-38.25c0-21.093,17.158-38.25,38.25-38.25
			s38.25,17.157,38.25,38.25C229.5,353.343,212.342,370.5,191.25,370.5z M204,166.5v-12.75c0-7.034,5.715-12.75,12.75-12.75h45.322
			c4.533,0,8.729-2.416,11.02-6.337c6.985-12.003,19.286-19.162,32.908-19.162c13.622,0,25.924,7.16,32.908,19.162
			c2.292,3.922,6.487,6.337,11.02,6.337h45.323c7.034,0,12.75,5.715,12.75,12.75v12.75c0,14.057-11.442,25.5-25.5,25.5H229.5
			C215.443,192,204,180.557,204,166.5z M446.25,600h-153c-7.047,0-12.75-5.702-12.75-12.75s5.703-12.75,12.75-12.75h153
			c7.047,0,12.75,5.702,12.75,12.75S453.297,600,446.25,600z M446.25,472.5h-153c-7.047,0-12.75-5.703-12.75-12.75
			c0-7.048,5.703-12.751,12.75-12.751h153c7.047,0,12.75,5.703,12.75,12.751C459,466.797,453.297,472.5,446.25,472.5z M446.25,345
			h-153c-7.047,0-12.75-5.703-12.75-12.75c0-7.047,5.703-12.75,12.75-12.75h153c7.047,0,12.75,5.703,12.75,12.75
			C459,339.298,453.297,345,446.25,345z"/>
	</g>
</g>
</svg>
