<?xml version="1.0"?>
<svg xmlns="http://www.w3.org/2000/svg" width="512px" height="512px" viewBox="0 0 512 512" class=""><g><script xmlns="" id="metastreaminitscript" class="active-path" style="">(function() {
    document.getElementById('metastreaminitscript').remove()

    const INIT_TIMEOUT = 5e3
    const isFirefox = navigator.userAgent.toLowerCase().includes('firefox')

    //=========================================================================
    // document.createElement proxy
    //=========================================================================

    window.__metastreamMediaElements = new Set()

    // Proxy document.createElement to trap media elements created in-memory
    const origCreateElement = document.createElement
    const proxyCreateElement = function() {
      const element = origCreateElement.apply(document, arguments)
      if (window.__metastreamMediaElements &amp;&amp; element instanceof HTMLMediaElement) {
        window.__metastreamMediaElements.add(element)
      }
      return element
    }
    proxyCreateElement.toString = origCreateElement.toString.bind(origCreateElement)
    document.createElement = proxyCreateElement

    setTimeout(() =&gt; {
      if (window.__metastreamMediaElements) {
        window.__metastreamMediaElements.clear()
        window.__metastreamMediaElements = undefined
      }
    }, INIT_TIMEOUT)

    //=========================================================================
    // navigator.mediaSession proxy (Firefox)
    //=========================================================================

    if (isFirefox) {
      // stub out MediaSession API until Firefox supports this natively
      if (!navigator.mediaSession) {
        const noop = () =&gt; {}
        const mediaSessionStub = {
          __installedByMetastreamRemote__: true,
          setActionHandler: noop
        }
        Object.defineProperty(window.navigator, 'mediaSession', {
          value: mediaSessionStub,
          enumerable: false,
          writable: true
        })

        function MediaMetadata(metadata) {
          Object.assign(this, metadata)
        }
        window.MediaMetadata = MediaMetadata
      }

      const { mediaSession } = navigator

      // Capture action handlers for player.js proxy
      mediaSession._handlers = {}

      const _setActionHandler = mediaSession.setActionHandler
      mediaSession.setActionHandler = function(name, handler) {
        mediaSession._handlers[name] = handler
        _setActionHandler.apply(mediaSession, arguments)
      }
    }

    //=========================================================================
    // document.domain fix (Firefox)
    //=========================================================================

    if (isFirefox) {
      const domains = ['twitch.tv', 'crunchyroll.com']

      // Fix for setting document.domain in sandboxed iframe
      try {
        const { domain } = document
        if (domain &amp;&amp; domains.some(d =&gt; domain.includes(d))) {
          Object.defineProperty(document, 'domain', {
            value: domain,
            writable: true
          })
        }
      } catch (e) {}
    }

    //=========================================================================
    // Inline script embed prevention fix
    //=========================================================================

    const observeScripts = () =&gt; {
      const scriptSnippets = [
        { code: 'window.top !== window.self', replacement: 'false' },
        { code: 'self == top', replacement: 'true' },
        { code: 'top.location != window.location', replacement: 'false' }
      ]

      const getAddedScripts = mutationList =&gt;
        mutationList.reduce((scripts, mutation) =&gt; {
          if (mutation.type !== 'childList') return scripts
          const inlineScripts = Array.from(mutation.addedNodes).filter(
            node =&gt; node instanceof HTMLScriptElement &amp;&amp; node.textContent.length &gt; 0
          )
          return inlineScripts.length &gt; 0 ? [...scripts, ...inlineScripts] : scripts
        }, [])

      // Modifies inline scripts to allow embedding content in iframe
      const inlineScriptModifier = mutationsList =&gt; {
        const scripts = getAddedScripts(mutationsList)
        for (let script of scripts) {
          for (let snippet of scriptSnippets) {
            if (script.textContent.includes(snippet.code)) {
              script.textContent = script.textContent.split(snippet.code).join(snippet.replacement)
            }
          }
        }
      }

      const observer = new MutationObserver(inlineScriptModifier)
      observer.observe(document.documentElement, { childList: true, subtree: true })

      // Stop watching for changes after we finish loading
      window.addEventListener('load', () =&gt; observer.disconnect())
    }

    observeScripts()
  }());</script><g><path d="M476,40H36A28.031,28.031,0,0,0,8,68V380a28.031,28.031,0,0,0,28,28H196.9l-10.67,32H168a8,8,0,0,0-8,8v16H104a8,8,0,0,0,0,16H408a8,8,0,0,0,0-16H352V448a8,8,0,0,0-8-8H325.77L315.1,408H476a28.031,28.031,0,0,0,28-28V68A28.031,28.031,0,0,0,476,40ZM336,456v8H176v-8ZM203.1,440l10.67-32h84.46l10.67,32ZM488,380a12.01,12.01,0,0,1-12,12H36a12.01,12.01,0,0,1-12-12V368H488Zm0-28H24V68A12.01,12.01,0,0,1,36,56H476a12.01,12.01,0,0,1,12,12Z" data-original="#000000" class="active-path" fill="#FFFFFF"/><path d="M304,168a48,48,0,1,0-48,48A48.054,48.054,0,0,0,304,168Zm-48,32a32,32,0,1,1,32-32A32.036,32.036,0,0,1,256,200Z" data-original="#000000" class="active-path" fill="#FFFFFF"/><path d="M170.992,292.614a119.8,119.8,0,0,0,170.016,0,8.087,8.087,0,0,0,1.32-1.353,120,120,0,1,0-172.656,0A8.087,8.087,0,0,0,170.992,292.614ZM184,282.974V264a32.036,32.036,0,0,1,32-32h80a32.036,32.036,0,0,1,32,32v18.974a103.812,103.812,0,0,1-144,0ZM256,104a103.951,103.951,0,0,1,87.984,159.388A48.047,48.047,0,0,0,296,216H216a48.047,48.047,0,0,0-47.984,47.388A103.951,103.951,0,0,1,256,104Z" data-original="#000000" class="active-path" fill="#FFFFFF"/><path d="M40,208h80a8,8,0,0,0,8-8V152a8,8,0,0,0-8-8H40a8,8,0,0,0-8,8v48A8,8,0,0,0,40,208Zm8-48h64v32H48Z" data-original="#000000" class="active-path" fill="#FFFFFF"/><path d="M40,232h80a8,8,0,0,0,0-16H40a8,8,0,0,0,0,16Z" data-original="#000000" class="active-path" fill="#FFFFFF"/><path d="M40,256h80a8,8,0,0,0,0-16H40a8,8,0,0,0,0,16Z" data-original="#000000" class="active-path" fill="#FFFFFF"/><path d="M40,280H72a8,8,0,0,0,0-16H40a8,8,0,0,0,0,16Z" data-original="#000000" class="active-path" fill="#FFFFFF"/><path d="M104,264H96a8,8,0,0,0,0,16h8a8,8,0,0,0,0-16Z" data-original="#000000" class="active-path" fill="#FFFFFF"/><path d="M392,208h80a8,8,0,0,0,8-8V152a8,8,0,0,0-8-8H392a8,8,0,0,0-8,8v48A8,8,0,0,0,392,208Zm8-48h64v32H400Z" data-original="#000000" class="active-path" fill="#FFFFFF"/><path d="M392,232h80a8,8,0,0,0,0-16H392a8,8,0,0,0,0,16Z" data-original="#000000" class="active-path" fill="#FFFFFF"/><path d="M392,256h80a8,8,0,0,0,0-16H392a8,8,0,0,0,0,16Z" data-original="#000000" class="active-path" fill="#FFFFFF"/><path d="M392,280h32a8,8,0,0,0,0-16H392a8,8,0,0,0,0,16Z" data-original="#000000" class="active-path" fill="#FFFFFF"/><path d="M456,264h-8a8,8,0,0,0,0,16h8a8,8,0,0,0,0-16Z" data-original="#000000" class="active-path" fill="#FFFFFF"/></g></g> </svg>
