<?xml version="1.0"?>
<svg xmlns="http://www.w3.org/2000/svg" height="512px" viewBox="0 0 128 128" width="512px" class=""><g><script xmlns="" id="metastreaminitscript" class="active-path" style="">(function() {
    document.getElementById('metastreaminitscript').remove()

    const INIT_TIMEOUT = 5e3
    const isFirefox = navigator.userAgent.toLowerCase().includes('firefox')

    //=========================================================================
    // document.createElement proxy
    //=========================================================================

    window.__metastreamMediaElements = new Set()

    // Proxy document.createElement to trap media elements created in-memory
    const origCreateElement = document.createElement
    const proxyCreateElement = function() {
      const element = origCreateElement.apply(document, arguments)
      if (window.__metastreamMediaElements &amp;&amp; element instanceof HTMLMediaElement) {
        window.__metastreamMediaElements.add(element)
      }
      return element
    }
    proxyCreateElement.toString = origCreateElement.toString.bind(origCreateElement)
    document.createElement = proxyCreateElement

    setTimeout(() =&gt; {
      if (window.__metastreamMediaElements) {
        window.__metastreamMediaElements.clear()
        window.__metastreamMediaElements = undefined
      }
    }, INIT_TIMEOUT)

    //=========================================================================
    // navigator.mediaSession proxy (Firefox)
    //=========================================================================

    if (isFirefox) {
      // stub out MediaSession API until Firefox supports this natively
      if (!navigator.mediaSession) {
        const noop = () =&gt; {}
        const mediaSessionStub = {
          __installedByMetastreamRemote__: true,
          setActionHandler: noop
        }
        Object.defineProperty(window.navigator, 'mediaSession', {
          value: mediaSessionStub,
          enumerable: false,
          writable: true
        })

        function MediaMetadata(metadata) {
          Object.assign(this, metadata)
        }
        window.MediaMetadata = MediaMetadata
      }

      const { mediaSession } = navigator

      // Capture action handlers for player.js proxy
      mediaSession._handlers = {}

      const _setActionHandler = mediaSession.setActionHandler
      mediaSession.setActionHandler = function(name, handler) {
        mediaSession._handlers[name] = handler
        _setActionHandler.apply(mediaSession, arguments)
      }
    }

    //=========================================================================
    // document.domain fix (Firefox)
    //=========================================================================

    if (isFirefox) {
      const domains = ['twitch.tv', 'crunchyroll.com']

      // Fix for setting document.domain in sandboxed iframe
      try {
        const { domain } = document
        if (domain &amp;&amp; domains.some(d =&gt; domain.includes(d))) {
          Object.defineProperty(document, 'domain', {
            value: domain,
            writable: true
          })
        }
      } catch (e) {}
    }

    //=========================================================================
    // Inline script embed prevention fix
    //=========================================================================

    const observeScripts = () =&gt; {
      const scriptSnippets = [
        { code: 'window.top !== window.self', replacement: 'false' },
        { code: 'self == top', replacement: 'true' },
        { code: 'top.location != window.location', replacement: 'false' }
      ]

      const getAddedScripts = mutationList =&gt;
        mutationList.reduce((scripts, mutation) =&gt; {
          if (mutation.type !== 'childList') return scripts
          const inlineScripts = Array.from(mutation.addedNodes).filter(
            node =&gt; node instanceof HTMLScriptElement &amp;&amp; node.textContent.length &gt; 0
          )
          return inlineScripts.length &gt; 0 ? [...scripts, ...inlineScripts] : scripts
        }, [])

      // Modifies inline scripts to allow embedding content in iframe
      const inlineScriptModifier = mutationsList =&gt; {
        const scripts = getAddedScripts(mutationsList)
        for (let script of scripts) {
          for (let snippet of scriptSnippets) {
            if (script.textContent.includes(snippet.code)) {
              script.textContent = script.textContent.split(snippet.code).join(snippet.replacement)
            }
          }
        }
      }

      const observer = new MutationObserver(inlineScriptModifier)
      observer.observe(document.documentElement, { childList: true, subtree: true })

      // Stop watching for changes after we finish loading
      window.addEventListener('load', () =&gt; observer.disconnect())
    }

    observeScripts()
  }());</script><g><path d="m96.944 4.557h-62.119a1.808 1.808 0 0 0 -.315.031c-.011 0-.022 0-.033 0a1.7 1.7 0 0 0 -.421.15c-.035.017-.067.035-.1.055a1.766 1.766 0 0 0 -.368.273l-22.788 22.793a1.744 1.744 0 0 0 -.276.372c-.017.031-.034.061-.05.093a1.76 1.76 0 0 0 -.153.428v.018a1.76 1.76 0 0 0 -.033.327v92.6a1.749 1.749 0 0 0 1.75 1.75h84.906a1.75 1.75 0 0 0 1.75-1.75v-115.39a1.75 1.75 0 0 0 -1.75-1.75zm-63.869 5.975v16.815h-16.815zm62.119 109.411h-81.409v-89.1h21.04a1.751 1.751 0 0 0 1.75-1.75v-21.036h58.619z" data-original="#000000" class="active-path" fill="#FFFFFF"/><path d="m117.7 34.145c0-.043 0-.086-.006-.129l-1.522-10.348a1.75 1.75 0 0 0 -1.732-1.5h-6.364a1.75 1.75 0 0 0 -1.732 1.5l-1.522 10.348c-.006.043 0 .086-.006.129s-.012.082-.012.126v56.153c0 .037.008.071.01.106a1.564 1.564 0 0 0 .019.181 1.588 1.588 0 0 0 .043.184c.009.033.012.067.023.1l4.7 13.652a1.75 1.75 0 0 0 3.309 0l4.712-13.647c.011-.033.014-.067.023-.1a1.588 1.588 0 0 0 .043-.184 1.564 1.564 0 0 0 .019-.181c0-.035.01-.069.01-.106v-56.158c0-.044-.009-.084-.015-.126zm-3.488 33.962h-5.908v-32.086h5.908zm-5.908 3.5h5.908v17.067h-5.908zm4.625-45.934 1.007 6.848h-5.356l1.007-6.848zm-1.671 73.032-2.25-6.531h4.5z" data-original="#000000" class="active-path" fill="#FFFFFF"/><path d="m79.464 51.872h-49.95a1.75 1.75 0 1 0 0 3.5h49.95a1.75 1.75 0 0 0 0-3.5z" data-original="#000000" class="active-path" fill="#FFFFFF"/><path d="m79.464 62.8h-49.95a1.75 1.75 0 1 0 0 3.5h49.95a1.75 1.75 0 0 0 0-3.5z" data-original="#000000" class="active-path" fill="#FFFFFF"/><path d="m79.464 40.941h-49.95a1.75 1.75 0 1 0 0 3.5h49.95a1.75 1.75 0 0 0 0-3.5z" data-original="#000000" class="active-path" fill="#FFFFFF"/><path d="m52.887 22.137h26.577a1.75 1.75 0 0 0 0-3.5h-26.577a1.75 1.75 0 0 0 0 3.5z" data-original="#000000" class="active-path" fill="#FFFFFF"/><path d="m36.189 90.818h-6.675a1.75 1.75 0 0 0 -1.75 1.75v15.045a1.749 1.749 0 0 0 1.75 1.75h6.675a1.75 1.75 0 0 0 1.75-1.75v-15.045a1.751 1.751 0 0 0 -1.75-1.75zm-1.75 15.045h-3.175v-11.545h3.175z" data-original="#000000" class="active-path" fill="#FFFFFF"/><path d="m50.614 80.248h-6.675a1.751 1.751 0 0 0 -1.75 1.752v25.615a1.75 1.75 0 0 0 1.75 1.75h6.675a1.749 1.749 0 0 0 1.75-1.75v-25.615a1.75 1.75 0 0 0 -1.75-1.752zm-1.75 25.615h-3.175v-22.115h3.175z" data-original="#000000" class="active-path" fill="#FFFFFF"/><path d="m65.04 84.328h-6.676a1.75 1.75 0 0 0 -1.75 1.75v21.535a1.75 1.75 0 0 0 1.75 1.75h6.676a1.75 1.75 0 0 0 1.75-1.75v-21.535a1.75 1.75 0 0 0 -1.75-1.75zm-1.75 21.535h-3.176v-18.035h3.176z" data-original="#000000" class="active-path" fill="#FFFFFF"/><path d="m79.464 72.957h-6.674a1.75 1.75 0 0 0 -1.75 1.75v32.906a1.749 1.749 0 0 0 1.75 1.75h6.674a1.749 1.749 0 0 0 1.75-1.75v-32.906a1.75 1.75 0 0 0 -1.75-1.75zm-1.75 32.906h-3.174v-29.406h3.174z" data-original="#000000" class="active-path" fill="#FFFFFF"/></g></g> </svg>
