<svg id="Layer_1" enable-background="new 0 0 512 512" height="512" viewBox="0 0 512 512" width="512" xmlns="http://www.w3.org/2000/svg"><g><path d="m511.195 185.436c-1.765-5.43-6.458-9.388-12.108-10.209l-154.857-22.501c-2.405-.349-4.483-1.86-5.559-4.039l-69.255-140.326c-2.527-5.119-7.741-8.361-13.451-8.361s-10.924 3.241-13.451 8.361l-69.255 140.325c-1.075 2.179-3.154 3.689-5.559 4.039l-154.857 22.502c-5.65.821-10.344 4.779-12.108 10.209s-.293 11.391 3.796 15.376l112.055 109.228c1.74 1.696 2.534 4.14 2.123 6.535l-26.453 154.231c-.965 5.627 1.349 11.315 5.968 14.671 2.613 1.899 5.707 2.865 8.818 2.865 2.387 0 4.784-.569 6.979-1.723l140.727-73.985c.763-.401 1.675-.401 2.439 0l61.309 32.213c3.551 1.866 7.702 2.232 11.525 1.015s7-3.915 8.819-7.49l53.979-106.069c1.455-2.859 1.955-6.11 1.427-9.275l-1.076-6.443c-.398-2.385.397-4.815 2.129-6.503l112.1-109.271c4.089-3.984 5.56-9.945 3.796-15.375z" fill="#ffde00"/><path d="m511.993 189.535c-.046-1.385-.285-2.775-.726-4.132-1.765-5.43-6.458-9.388-12.108-10.209l-154.857-22.501c-.177-.026-.347-.07-.52-.108-2.079-.302-3.877-1.608-4.806-3.492l-.115-.232c-.037-.07-.083-.135-.118-.206l-69.255-140.326c-2.39-4.841-7.182-7.998-12.523-8.328l-.637 412.335c.32.036.637.112.93.266l60.637 31.86.672.32c3.551 1.866 7.702 2.232 11.525 1.015s7-3.915 8.819-7.49l53.979-106.069c1.089-2.139 1.642-4.498 1.631-6.875-.005-.789-.073-1.581-.204-2.367l-1.076-6.443c-.005-.029-.005-.058-.009-.088-.393-2.351.391-4.745 2.098-6.409l112.14-109.31c3.06-2.981 4.653-7.068 4.523-11.211z" fill="#ffb329"/><g><path d="m490.237 512h-153.049c-12.02 0-21.764-9.744-21.764-21.764v-153.048c0-12.02 9.744-21.764 21.764-21.764h153.049c12.02 0 21.764 9.744 21.764 21.764v153.049c-.001 12.019-9.745 21.763-21.764 21.763z" fill="#00df76"/><path d="m491.827 315.424h-78.114v196.576h78.115c11.141 0 20.173-9.032 20.173-20.173v-156.229c-.001-11.142-9.033-20.174-20.174-20.174z" fill="#00ab5e"/><path d="m455.664 396.401h-24.521v-20.958c0-9.497-7.699-17.195-17.195-17.195-9.497 0-17.195 7.699-17.195 17.195v20.958h-22.869c-9.497 0-17.195 7.699-17.195 17.195s7.699 17.195 17.195 17.195h22.869v26.432c0 9.497 7.699 17.195 17.195 17.195 9.497 0 17.195-7.699 17.195-17.195v-26.432h24.521c9.497 0 17.195-7.699 17.195-17.195s-7.699-17.195-17.195-17.195z" fill="#fff1f3"/><path d="m455.664 396.401h-24.521v-20.958c0-9.496-7.699-17.195-17.195-17.195-.079 0-.156.011-.235.012v116.147c.079.001.156.012.235.012 9.497 0 17.195-7.699 17.195-17.195v-26.432h24.521c9.497 0 17.195-7.699 17.195-17.195 0-9.497-7.699-17.196-17.195-17.196z" fill="#e2ebf0"/></g></g></svg>