<?xml version="1.0" encoding="utf-8"?>
<!-- Generator: Adobe Illustrator 16.0.0, SVG Export Plug-In . SVG Version: 6.00 Build 0)  -->
<!DOCTYPE svg PUBLIC "-//W3C//DTD SVG 1.1//EN" "http://www.w3.org/Graphics/SVG/1.1/DTD/svg11.dtd">
<svg version="1.1" id="Layer_1" xmlns="http://www.w3.org/2000/svg" xmlns:xlink="http://www.w3.org/1999/xlink" x="0px" y="0px"
	 width="512px" height="512px" viewBox="0 0 512 512" enable-background="new 0 0 512 512" xml:space="preserve">
<g id="Layer_4">
	<path fill="#FFFFFF" d="M314.16,108.56c-9.25-20.856-29.244-34.914-52-36.56c-2.08,0-4.08,0-6.16,0s-4.08,0-6.16,0
		c-22.701,1.602-42.682,15.558-52,36.32c-9.827,20.903-7.303,45.525,6.56,64l51.6,70.16l51.68-70l0,0
		C321.485,154.008,323.978,129.427,314.16,108.56z M256,184c-26.51,0-48-21.49-48-48s21.49-48,48-48s48,21.49,48,48
		S282.51,184,256,184z"/>
	<path fill="#FFFFFF" d="M300.32,68.88c12.434,8.068,22.29,19.536,28.399,33.04c10.423,22.368,9.682,48.343-2,70.08
		c6.896,2.641,14.217,3.997,21.601,4c14.706-0.137,28.854,5.626,39.279,16l2.08,2c8.666,8.896,20.541,13.94,32.96,14h60.32
		c-17.244-80.768-76.003-146.346-154.4-172.32L302.48,66L300.32,68.88z"/>
	<circle fill="#FFFFFF" cx="256" cy="136" r="32"/>
	<path fill="#FFFFFF" d="M453.68,293.68c-11.732,11.781-27.692,18.379-44.319,18.32H390.64c-12.372-0.025-24.241,4.9-32.96,13.68
		l-8,8c-8.778,8.719-13.705,20.588-13.68,32.961v2.719c0.059,16.628-6.538,32.588-18.32,44.32
		c-8.778,8.719-13.705,20.588-13.68,32.96v36.32C402.491,462.116,476.3,380.132,486.72,280l0,0
		C474.319,279.953,462.418,284.881,453.68,293.68z"/>
	<path fill="#FFFFFF" d="M485.76,224h-63.12c-16.627,0.059-32.587-6.539-44.319-18.32L376,203.6
		c-7.327-7.378-17.281-11.55-27.68-11.6c-10.471-0.049-20.819-2.255-30.4-6.48l-55.52,75.2c-2.651,3.535-7.666,4.251-11.2,1.601
		c-0.606-0.455-1.146-0.994-1.6-1.601L191.52,182c-17.195-23.159-20.269-53.895-8-80c11.54-26.188,36.581-43.877,65.12-46
		c4.898-0.4,9.821-0.4,14.719,0c7.707,0.575,15.285,2.301,22.48,5.12c1.439-2,2.96-3.92,4.48-5.84L312,30.8
		c-76.164-18.779-156.657,2.3-213.84,56l16.48,16.56c8.583,8.693,13.385,20.424,13.36,32.64v16c0.001,8.127,3.223,15.923,8.96,21.68
		l9.36,9.36c8.779,8.719,13.705,20.587,13.68,32.96c0.001,8.127,3.223,15.923,8.96,21.68l35.76,35.679
		c25.692,25.787,25.692,67.494,0,93.281C173.783,397.75,131.871,415.474,88,416c43.75,46.033,104.494,72.065,168,72
		c10.705-0.016,21.396-0.764,32-2.24v-39.12c-0.059-16.627,6.539-32.587,18.32-44.319c8.778-8.719,13.705-20.588,13.68-32.961
		v-2.719c-0.059-16.628,6.538-32.588,18.32-44.32l8-8c11.732-11.781,27.692-18.379,44.319-18.32h18.721
		c12.372,0.025,24.241-4.9,32.96-13.68c11.732-11.781,27.692-18.379,44.319-18.32H488c0-2.641,0-5.28,0-8
		C487.984,245.295,487.236,234.603,485.76,224z"/>
	<path fill="#FFFFFF" d="M208,320c0.034-13.244-5.238-25.951-14.64-35.279l-35.68-35.761c-8.779-8.719-13.705-20.587-13.68-32.96
		c-0.001-8.127-3.223-15.923-8.96-21.68l-9.36-9.36c-8.779-8.719-13.705-20.587-13.68-32.96v-16
		c-0.001-8.127-3.223-15.923-8.96-21.68L86.48,97.84C8.021,181.594,2.845,310.213,74.32,400h11.2
		c40.482,0.123,79.325-15.984,107.84-44.721C202.762,345.951,208.034,333.244,208,320z"/>
</g>
</svg>
